<svg width="166" height="132" viewBox="0 0 166 132" fill="none" xmlns="http://www.w3.org/2000/svg">
<g clip-path="url(#clip0_9963_20163)">
<path d="M65.3331 72.7566L65.3056 81.9297L52.1078 87.1074C52.1078 87.1074 54.154 116.911 65.7388 113.984C77.3798 111.059 113.086 87.6363 113.086 87.6363L97.6849 83.0557C97.6849 83.0557 96.8317 58.1346 97.179 58.2594" fill="#F6A686"/>
<path d="M65.3331 72.7566L65.3056 81.9297L52.1078 87.1074C52.1078 87.1074 54.154 116.911 65.7388 113.984C77.3798 111.059 113.086 87.6363 113.086 87.6363L97.6849 83.0557C97.6849 83.0557 96.8317 58.1346 97.179 58.2594" stroke="#3C3F47" stroke-width="0.5"/>
<path d="M75.651 75.4469C61.2069 77.26 55.1116 67.7446 55.0568 56.5143L55.0011 45.706C54.9458 34.4897 63.9919 25.3386 75.2082 25.2832C86.4245 25.2279 95.5756 34.2739 95.6309 45.4903L95.6866 56.2985C95.7419 67.5149 75.651 75.4469 75.651 75.4469Z" fill="#F6A686"/>
<path d="M95.6313 45.4771C95.576 34.2607 86.4249 25.2147 75.2086 25.27C63.9922 25.3254 54.9462 34.4765 55.0015 45.6928L55.0571 56.5011C55.1125 67.7174 61.3409 77.4485 76.2325 75.3135" stroke="#3C3F47" stroke-width="0.5"/>
<path d="M98.123 71.7988C95.553 70.062 97.0647 63.0939 95.8549 60.6874C94.7893 58.5815 89.8693 57.6485 89.8693 57.6485C89.8693 57.6485 89.3976 37.8766 83.539 40.0201C69.8975 45.0133 61.2358 34.0568 55.3835 41.6178C53.0251 44.6584 47.6713 36.4637 47.1562 31.1127C46.805 27.4982 55.9083 26.3132 55.6439 23.4335C55.3794 20.5537 50.6576 17.5874 56.4828 15.9914C62.308 14.3955 68.9824 15.8547 70.0542 15.3858C71.7688 14.6442 66.8993 10.2796 75.0713 11.5664C83.2433 12.8532 85.6604 16.9344 93.4678 16.5901C101.275 16.2459 101.309 23.2825 102.249 27.3539C102.249 27.3539 110.703 31.4084 111.308 35.8198C112.448 44.2039 100.693 73.5355 98.1371 71.7992L98.123 71.7988Z" fill="#222221" stroke="#3C3F47" stroke-width="0.5" stroke-miterlimit="10"/>
<path d="M67.8104 58.3501C67.1277 58.1572 64.0087 58.8213 63.2438 57.7672C62.4789 56.7131 64.5755 55.1125 67.0265 50.6399" fill="#F6A686"/>
<path d="M67.8104 58.3501C67.1277 58.1572 64.0087 58.8213 63.2438 57.7672C62.4789 56.7131 64.5755 55.1125 67.0265 50.6399" stroke="#3C3F47" stroke-width="0.5"/>
<path d="M61.6717 61.6449L70.7857 61.7548C70.7857 61.7548 71.2798 67.302 66.1881 67.2493C62.3044 67.2533 61.6717 61.6449 61.6717 61.6449Z" fill="white" stroke="#3C3F47" stroke-width="0.5"/>
<path d="M97.3249 64.8899C101.14 64.0393 103.538 60.2684 102.687 56.4674C101.836 52.6665 98.0654 50.2543 94.2644 51.1054C90.4635 51.9566 88.0513 55.727 88.9024 59.5279C89.7535 63.3288 93.524 65.7411 97.3249 64.8899Z" fill="#F6A686"/>
<path d="M98.8151 54.5148C97.3649 52.9441 94.9201 52.844 93.3353 54.2937C91.7646 55.744 91.6645 58.1888 93.1147 59.7595" stroke="#3C3F47" stroke-width="0.5" stroke-miterlimit="10"/>
<path d="M94.0382 53.9255C94.7534 53.9929 95.384 54.4654 95.8139 55.0433C96.2434 55.6354 96.4721 56.3329 96.6165 57.0274" stroke="#3C3F47" stroke-width="0.5" stroke-miterlimit="10"/>
<path d="M61.8722 51.4542C61.096 51.4268 60.5005 50.4483 60.542 49.2686C60.5836 48.0888 61.2464 47.1546 62.0226 47.182C62.7987 47.2093 63.3942 48.1878 63.3527 49.3675C63.3112 50.5473 62.6483 51.4815 61.8722 51.4542Z" fill="#3C3F47"/>
<path d="M75.4053 52.3216C74.6292 52.2943 74.0337 51.3158 74.0752 50.136C74.1167 48.9563 74.7796 48.0221 75.5558 48.0494C76.3319 48.0767 76.9274 49.0552 76.8859 50.235C76.8443 51.4147 76.1815 52.3489 75.4053 52.3216Z" fill="#3C3F47"/>
<path d="M124.521 97.3481C122.386 93.6286 115.597 87.8316 115.597 87.8316L100.464 83.6544C100.464 83.6544 92.8312 98.2163 79.5615 97.0455C66.3059 95.8752 63.6943 82.5286 63.6943 82.5286C63.6943 82.5286 34.5264 88.9028 34.4082 101.45C34.1625 128.809 39.1514 185.732 37.7249 195.475C37.3328 198.219 125.263 201.751 126.457 197.811C127.384 194.678 130.698 108.133 124.52 97.3621L124.521 97.3481Z" fill="#5366A6" stroke="#3C3F47" stroke-width="0.5"/>
<path d="M59.1534 83.6223C59.1534 83.6223 60.869 100.835 76.8942 103.271C97.1743 106.348 105.919 84.9734 105.919 84.9734" stroke="#3C3F47" stroke-width="0.5" stroke-miterlimit="10"/>
<path d="M23.5302 132.267L42.5718 140.55C42.5718 140.55 40.5804 162.74 40.444 169.01C40.3143 175.492 39.6365 181.955 38.5531 188.347C37.7695 193.019 38.8446 198.052 38.3701 202.735L16.3658 188.284L23.5302 132.267Z" fill="#F6A686" stroke="#3C3F47" stroke-width="0.5"/>
<path d="M45.5716 88.9304C45.5716 88.9304 34.6973 94.4572 29.5591 101.72C24.4208 108.982 17.598 130.917 17.598 130.917C17.598 130.917 22.3426 137.233 27.8386 140.593C33.3345 143.952 41.9302 146.394 41.9302 146.394L43.6167 130.863" fill="#5366A6"/>
<path d="M45.5716 88.9304C45.5716 88.9304 34.6973 94.4572 29.5591 101.72C24.4208 108.982 17.598 130.917 17.598 130.917C17.598 130.917 22.3426 137.233 27.8386 140.593C33.3345 143.952 41.9302 146.394 41.9302 146.394L43.6167 130.863" stroke="#3C3F47" stroke-width="0.5" stroke-miterlimit="10"/>
<path d="M109.661 86.2056C109.661 86.2056 128.934 90.6974 137.152 97.8814C145.37 105.051 154.474 141.013 154.474 141.013L123.72 150.863" fill="#5366A6"/>
<path d="M109.661 86.2056C109.661 86.2056 128.934 90.6974 137.152 97.8814C145.37 105.051 154.474 141.013 154.474 141.013L123.72 150.863" stroke="#3C3F47" stroke-width="0.5" stroke-miterlimit="10"/>
<path d="M121.082 122.701L121.395 129.804L122.113 146.165L109.446 155.076L97.296 146.867L96.3152 130.764L95.9376 124.306L121.082 122.701Z" fill="#5366A6" stroke="#3C3F47" stroke-width="0.5" stroke-miterlimit="10"/>
<path d="M96.315 130.766C96.6543 130.721 121.381 129.791 121.381 129.791" stroke="#3C3F47" stroke-width="0.5" stroke-miterlimit="10"/>
</g>
<defs>
<clipPath id="clip0_9963_20163">
<rect width="170" height="132" fill="white" transform="translate(-2)"/>
</clipPath>
</defs>
</svg>
