<svg width="166" height="132" viewBox="0 0 166 132" fill="none" xmlns="http://www.w3.org/2000/svg">
<g clip-path="url(#clip0_9963_20170)">
<path d="M101.024 30.5248C103.569 36.4582 113.079 38.6748 119.751 35.8412C126.423 33.0076 127.647 26.1646 125.101 20.2312C122.555 14.2979 114.687 10.1609 108.015 12.9945C101.343 15.8281 98.4777 24.5915 101.024 30.5248Z" fill="#9A4343" stroke="#3C3F47" stroke-width="0.5"/>
<path d="M60.9989 52.5092C60.3224 56.9307 59.4033 61.7479 55.7922 65.3963C48.511 72.7018 36.4124 70.0219 27.265 73.9968C22.0115 76.2635 17.5036 80.7631 17.5595 85.6783C17.6423 91.1901 23.2687 96.014 21.9062 101.496C21.6317 102.497 21.1809 103.523 20.7802 104.482C18.5027 110.278 19.5126 116.795 23.5676 121.548C29.2918 128.279 38.8233 129.412 48.1344 129.856C51.8824 130.03 55.9243 130.162 59.5597 129.152C63.3715 128.116 67.1221 126.248 70.8237 124.868C78.8062 121.964 86.8732 119.227 95.1606 117.179C101.828 115.547 108.848 114.283 114.679 111.032C120.568 107.772 125.088 101.709 123.443 96.1853C122.153 91.8701 117.583 88.9338 112.955 86.8462C108.278 84.826 103.19 83.2859 99.3837 80.2382C95.1731 76.8891 93.0423 72.1561 90.5931 67.7097C87.8144 62.6509 84.3879 57.2662 85.9096 51.6407" fill="#9A4343"/>
<path d="M60.9989 52.5092C60.3224 56.9307 59.4033 61.7479 55.7922 65.3963C48.511 72.7018 36.4124 70.0219 27.265 73.9968C22.0115 76.2635 17.5036 80.7631 17.5595 85.6783C17.6423 91.1901 23.2687 96.014 21.9062 101.496C21.6317 102.497 21.1809 103.523 20.7803 104.482C18.5027 110.278 19.5126 116.795 23.5676 121.548C29.2918 128.279 38.8233 129.412 48.1344 129.856C51.8824 130.03 55.9243 130.162 59.5597 129.152C63.3715 128.116 67.1221 126.248 70.8237 124.868C78.8062 121.964 86.8732 119.227 95.1606 117.179C101.828 115.547 108.848 114.283 114.679 111.032C120.568 107.772 125.088 101.709 123.443 96.1853C122.153 91.8701 117.583 88.9338 112.955 86.8462C108.278 84.826 103.19 83.2859 99.3837 80.2382C95.1731 76.8891 93.0423 72.1561 90.5931 67.7097C87.8144 62.6509 84.3879 57.2662 85.9096 51.6407" stroke="#3C3F47" stroke-width="0.5"/>
<path d="M62.4827 72.1646L63.851 83.6132L53.53 88.5998C53.53 88.5998 60.9987 118.012 72.0337 112.982C83.1275 107.943 113.321 79.4658 113.321 79.4658L100.94 74.8458C100.94 74.8458 92.0545 52.6044 92.4244 52.6706" fill="#F6A686"/>
<path d="M62.4827 72.1646L63.851 83.6132L53.53 88.5998C53.53 88.5998 60.9987 118.012 72.0337 112.982C83.1275 107.943 113.321 79.4658 113.321 79.4658L100.94 74.8458C100.94 74.8458 92.0545 52.6044 92.4244 52.6706" stroke="#3C3F47" stroke-width="0.5"/>
<path d="M40.1597 111.804C40.6315 121.222 37.8598 133.514 39.9141 143.902C41.1077 150.033 48.9792 167.378 50.5758 173.39C53.7862 185.531 50.7893 195.454 52.0751 198.509C53.716 202.353 60.1965 203.149 60.1965 203.149L133.652 188.902L135.997 192.223C139.029 191.601 143.085 190.589 144.027 187.99C144.96 185.333 144.305 182.486 143.609 179.766C139.948 165.769 131.417 152.963 131.199 138.284C131.032 126.841 133.429 115.684 130.585 102.349L127.92 84.0644L102.568 74.4899L75.7824 89.6813L71.6159 110.943L70.0673 89.1933L60.8165 86.2785L50.4689 87.7865L40.1597 111.804Z" fill="#C44179" stroke="#3C3F47" stroke-width="0.5"/>
<path d="M60.5735 84.212C60.7522 85.0265 59.678 85.4833 58.8635 85.662C52.5812 86.6376 46.1631 87.0926 40.3559 89.6801C31.6286 93.6539 25.9887 101.921 22.8878 110.719C18.9537 122.039 16.297 177.035 15.1457 188.911L47.0406 185.704L48.8089 168.127" fill="#C44179"/>
<path d="M60.5735 84.212C60.7522 85.0265 59.678 85.4833 58.8635 85.662C52.5812 86.6376 46.1631 87.0926 40.3559 89.6801C31.6286 93.6539 25.9887 101.921 22.8878 110.719C18.9537 122.039 16.297 177.035 15.1457 188.911L47.0406 185.704L48.8089 168.127" stroke="#3C3F47" stroke-width="0.5"/>
<path d="M62.2936 80.356L70.1243 89.1817L62.6299 98.3195L56.7837 87.0431L62.2936 80.356Z" fill="#C44179" stroke="#3C3F47" stroke-width="0.5"/>
<path d="M70.1246 89.1832L62.6302 98.321L56.7839 87.0446" stroke="#3C3F47" stroke-width="0.5" stroke-miterlimit="10"/>
<path d="M100.811 68.6259L75.8399 89.6771L85.2444 99.4142L108.043 76.6382L100.811 68.6259Z" fill="#C44179" stroke="#3C3F47" stroke-width="0.5"/>
<path d="M75.8393 89.6717L85.2438 99.4088L108.043 76.6328" stroke="#3C3F47" stroke-width="0.5" stroke-miterlimit="10"/>
<path d="M42.7839 109.624C42.1074 114.046 42.0782 124.557 41.4776 129.088C39.4858 143.848 43.6309 153.751 48.6698 167.727" stroke="#C44179" stroke-width="0.5" stroke-miterlimit="10"/>
<path d="M42.7845 109.627C42.1079 114.049 42.0788 124.56 41.4782 129.091C39.4864 143.851 43.7707 154.151 48.8096 168.127" stroke="#3C3F47" stroke-width="0.5" stroke-miterlimit="10"/>
<path d="M71.6736 110.936C71.3777 131.153 71.2015 155.075 75.5257 174.859C76.6667 180.216 78.1691 185.581 77.7643 191.044C77.5448 193.658 79.0156 196.746 80.3504 199.313" stroke="#3C3F47" stroke-width="0.5" stroke-miterlimit="10"/>
<path d="M74.0905 112.682C74.2105 113.505 74.9514 114.057 75.7745 113.938C76.5976 113.818 77.1501 113.077 77.0301 112.254C76.9102 111.43 76.1692 110.878 75.3461 110.998C74.5732 111.051 73.9705 111.859 74.0905 112.682Z" stroke="#3C3F47" stroke-width="0.5" stroke-miterlimit="10"/>
<path d="M74.7478 131.626C74.8678 132.449 75.6087 133.002 76.4318 132.882C77.2549 132.762 77.8074 132.021 77.6874 131.198C77.5675 130.375 76.8265 129.822 76.0034 129.942C75.2391 130.054 74.6278 130.803 74.7478 131.626Z" stroke="#3C3F47" stroke-width="0.5" stroke-miterlimit="10"/>
<path d="M107.202 76.2235C118.196 77.5033 128.583 77.9109 135.911 87.4102C149.168 104.631 142.088 126.498 137.772 145.499C134.079 161.768 131.175 186.729 114.097 185.315C104.743 184.577 94.9109 191.133 88.7335 184.588C85.5394 181.211 88.1289 180.44 88.1289 180.44L99.3368 135.55L108.77 101.813" fill="#C44179"/>
<path d="M107.202 76.2235C118.196 77.5033 128.583 77.9109 135.911 87.4102C149.168 104.631 142.088 126.498 137.772 145.499C134.079 161.768 131.175 186.729 114.097 185.315C104.743 184.577 94.9109 191.133 88.7335 184.588C85.5394 181.211 88.1289 180.44 88.1289 180.44L99.3368 135.55L108.77 101.813" stroke="#3C3F47" stroke-width="0.5"/>
<path d="M52.9801 60.5198C52.5715 55.6559 52.8976 52.126 53.8253 47.3676C55.1083 40.516 56.1872 29.7915 62.5445 25.6228C65.9999 23.378 70.1657 22.7109 74.1733 22.6072C80.2056 22.3885 86.3358 24.0769 91.2776 27.4996C94.8809 29.9765 96.6958 32.9542 97.1534 37.3306C97.7751 43.2442 96.5987 49.1796 94.7658 54.7304C90.5083 67.5392 78.748 74.5968 65.4451 73.9537C58.2015 73.6885 53.6396 67.9289 52.9801 60.5198Z" fill="#F6A686" stroke="#3C3F47" stroke-width="0.5"/>
<path d="M89.1259 60.5387C89.0402 59.9508 89.0827 51.1785 89.4942 51.1186C86.6134 51.5384 83.5993 49.3959 81.0995 47.8989C74.7283 44.1442 71.999 35.7158 73.0959 28.411C73.129 28.2261 73.1621 28.0411 73.0273 27.9407C72.96 27.8905 72.8338 27.8488 72.775 27.8574C69.0687 27.5569 65.197 28.1812 61.9253 30.039C59.8197 31.2465 57.9761 33.0162 56.7217 35.1203C56.0442 36.2398 55.5603 37.4511 55.3287 38.7457C52.1592 35.1248 51.9872 27.7647 54.1861 23.9018C57.5807 17.9434 68.9511 15.6258 74.6179 19.9035C74.6179 19.9035 90.1516 16.0786 98.0066 27.5426C105.862 39.0065 105.512 46.0824 103.592 50.6251C101.731 55.1592 96.5113 63.4251 96.5113 63.4251L89.1259 60.5387Z" fill="#9A4343" stroke="#3C3F47" stroke-width="0.5"/>
<path d="M74.6106 19.847C79.6216 17.9759 85.8217 17.6728 90.9107 19.633C96.252 21.6765 101.129 25.8892 104.043 31.4686C105.615 34.4218 106.43 37.5452 106.801 40.9135C107.3 45.1638 107.203 49.4409 109.868 52.8951C112.305 56.0224 115.668 56.8531 119.139 57.1878C128.637 58.0853 138.924 59.0478 146.199 67.3541C148.938 70.4973 151.692 75.7998 149.385 79.7387C148.523 81.2451 147.418 82.7271 147.255 84.492C147.06 86.8621 148.679 88.9077 149.71 91.039C152.002 96.0488 150.624 102.254 146.956 106.331C143.287 110.408 137.696 112.423 132.168 112.389C128.017 112.333 123.551 110.942 121.306 107.487C117.812 102.052 121.042 94.1363 117.38 88.7859C115.482 86.0605 112.1 84.692 108.772 84.5165C102.478 84.173 95.0836 84.1098 91.101 78.2057C86.5698 71.4209 87.1231 62.0339 87.6812 54.3273" fill="#9A4343"/>
<path d="M74.6106 19.847C79.6216 17.9759 85.8217 17.6728 90.9107 19.633C96.252 21.6765 101.129 25.8892 104.043 31.4686C105.615 34.4218 106.43 37.5452 106.801 40.9135C107.3 45.1638 107.203 49.4409 109.868 52.8951C112.305 56.0224 115.668 56.8531 119.139 57.1878C128.637 58.0853 138.924 59.0478 146.199 67.3541C148.938 70.4973 151.692 75.7998 149.385 79.7387C148.523 81.2451 147.418 82.7271 147.255 84.492C147.06 86.8621 148.679 88.9077 149.71 91.039C152.002 96.0488 150.624 102.254 146.956 106.331C143.287 110.408 137.696 112.423 132.168 112.389C128.017 112.333 123.551 110.942 121.306 107.487C117.812 102.052 121.042 94.1363 117.38 88.7859C115.482 86.0605 112.1 84.692 108.772 84.5165C102.478 84.173 95.0836 84.1098 91.101 78.2057C86.5698 71.4209 87.1231 62.0339 87.6812 54.3273" stroke="#3C3F47" stroke-width="0.5"/>
<path d="M62.4762 46.5876C61.9445 48.7066 60.8578 50.7262 59.3671 52.4445C59.1662 52.7139 58.8979 52.9332 58.7558 53.194C58.4299 53.8419 58.6589 54.5891 59.1059 55.1844C59.5443 55.7209 60.2008 56.1056 60.7985 56.4988" stroke="#3C3F47" stroke-width="0.5" stroke-miterlimit="10"/>
<path d="M72.1013 47.5137C71.9107 48.6817 72.3619 49.6984 73.1601 49.8274C73.9583 49.9565 74.7316 49.1221 74.9222 47.9541C75.1128 46.7862 74.6615 45.7695 73.8633 45.6404C73.0652 45.5114 72.2919 46.3457 72.1013 47.5137Z" fill="#3C3F47"/>
<path d="M57.8775 46.2798C57.6868 47.4478 58.1381 48.4645 58.9363 48.5935C59.7345 48.7226 60.5077 47.8882 60.6983 46.7203C60.8889 45.5523 60.4377 44.5356 59.6395 44.4065C58.8413 44.2775 58.0681 45.1118 57.8775 46.2798Z" fill="#3C3F47"/>
<path d="M60.6386 40.9794C60.2161 40.1404 59.3073 39.6724 58.3324 39.5743C57.4248 39.5265 56.5012 39.7811 55.6793 40.3212C54.9076 40.7939 54.229 41.4932 53.6092 42.184" stroke="#3C3F47" stroke-width="0.5" stroke-miterlimit="10"/>
<path d="M71.5792 41.0653C73.2242 40.4053 75.0725 40.316 76.8215 40.7816C78.5619 41.1885 80.1529 42.2175 81.3078 43.5502" stroke="#3C3F47" stroke-width="0.5" stroke-miterlimit="10"/>
<path d="M61.036 60.193L68.929 58.3222C68.929 58.3222 70.6689 64.493 66.2606 65.5558C62.9021 66.4055 61.036 60.193 61.036 60.193Z" fill="white" stroke="#3C3F47" stroke-width="0.5"/>
<path d="M81.7015 52.022C82.6351 49.3642 85.3948 47.7012 87.4121 47.9476C90.4631 48.2835 92.0343 51.2367 92.2349 53.8493C92.46 56.2181 91.987 58.3284 90.5562 60.4583C89.2259 62.4534 87.0798 64.2072 84.6338 63.9032C82.9779 63.6642 81.3772 62.1562 81.1715 60.7452" fill="#F6A686"/>
<path d="M81.7015 52.022C82.6351 49.3642 85.3948 47.7012 87.4121 47.9476C90.4631 48.2835 92.0343 51.2367 92.2349 53.8493C92.46 56.2181 91.987 58.3284 90.5562 60.4583C89.2259 62.4534 87.0798 64.2072 84.6338 63.9032C82.9779 63.6642 81.3772 62.1562 81.1715 60.7452" stroke="#3C3F47" stroke-width="0.5"/>
<path d="M82.6525 58.54L89.1311 52.7324" stroke="#3C3F47" stroke-width="0.5" stroke-miterlimit="10"/>
<path d="M81.1887 61.2768C81.8904 62.7957 83.3221 63.968 85.0528 63.8959C86.6071 63.8495 88.2019 63.2568 89.3754 62.2452" stroke="#3C3F47" stroke-width="0.5" stroke-miterlimit="10"/>
<path d="M100.185 24.766C103.521 27.8822 105.854 32.7659 106.4 35.6884" stroke="#3C3F47" stroke-width="0.5" stroke-miterlimit="10" stroke-linecap="round"/>
</g>
<defs>
<clipPath id="clip0_9963_20170">
<rect width="170" height="132" fill="white" transform="translate(-2)"/>
</clipPath>
</defs>
</svg>
